# xmcd
#
# Track frame offsets:
# 150
# 17808
# 33108
# 48036
# 72312
# 93547
# 116405
# 130414
# 145480
# 165711
# 185439
# 206142
# 224526
# 243789
# 262467
# 275970
#
# Disc length: 3975 seconds
#
#
# Revision: 0
# Processed by: cddbd v1.5.1PL0 Copyright (c) Steve Scherf et al.
# Submitted via: FreeRIP 2.92 
#
DISCID=fc0f8510
DTITLE=Seth Eames - Train Goes By
DYEAR=2003
DGENRE=Blues
TTITLE0=Train Goes By
TTITLE1=Waiting by the Roadside
TTITLE2=West Wind
TTITLE3=Heat Lightnin'
TTITLE4=Memory Still
TTITLE5=Blind Mahalia
TTITLE6=Change Gonna Come
TTITLE7=Old Mountain
TTITLE8=Indian Summer Blues
TTITLE9=Old Man Winter
TTITLE10=Almost Home
TTITLE11=Here and Gone
TTITLE12=First Light
TTITLE13=When Old Midnight Comes
TTITLE14=Wanderin'
TTITLE15=Earth Blues
EXTD=
EXTT0=
EXTT1=
EXTT2=
EXTT3=
EXTT4=
EXTT5=
EXTT6=
EXTT7=
EXTT8=
EXTT9=
EXTT10=
EXTT11=
EXTT12=
EXTT13=
EXTT14=
EXTT15=
PLAYORDER=
